<svg width="71" height="86" viewBox="0 0 71 86" fill="none" xmlns="http://www.w3.org/2000/svg">
<g clip-path="url(#clip0_2_18)">
<path d="M69.82 50.81C69.82 72.41 53.82 84.36 37.15 84.36C20.48 84.36 1.11 72.85 1.11 51.25C1.11 37.94 18.1 11.48 26.89 4.41001C32.68 -0.239985 39.26 0.150015 45.06 4.81001C53.86 11.88 69.82 37.5 69.82 50.81Z" fill="#FCB54D" stroke="#231F20" stroke-width="2.22" stroke-miterlimit="10"/>
<path d="M21.45 81.09C55.88 74.94 58.29 47.43 56.49 31.29" stroke="#231F20" stroke-width="2.71" stroke-miterlimit="10"/>
<path d="M6.05 68.4C36.8 57.39 40.26 35.34 38.76 19.6" stroke="#231F20" stroke-width="2.71" stroke-miterlimit="10"/>
<path d="M49.4 82.03C14.97 75.89 13.23 48.38 15.03 32.24" stroke="#231F20" stroke-width="2.71" stroke-miterlimit="10"/>
<path d="M66.74 66.54C32.31 60.39 32.23 33.88 34.03 17.74" stroke="#231F20" stroke-width="2.71" stroke-miterlimit="10"/>
<path d="M36.08 45.2C31.46 45.75 20.92 40.29 15.77 37.43C14.1 36.5 13.46 34.43 14.33 32.73C18.26 25 28.98 5.08 35.27 5C42 4.92 53.36 24.58 57.64 32.45C58.6 34.21 57.93 36.39 56.14 37.3C51.07 39.87 41.22 44.59 36.08 45.2Z" fill="white" stroke="#231F20" stroke-width="1.68" stroke-miterlimit="10"/>
</g>
<defs>
<clipPath id="clip0_2_18">
<rect width="70.93" height="85.47" fill="white"/>
</clipPath>
</defs>
</svg>
